{"title":"Ben 10 Omniverse A Jolt From the Past EPISODE-3.mkv","uid":8615839,"size":141293601,"categoryP":"video","categoryS":"tv_shows","magnet":"?xt=urn:btih:55e9090bedde7fe577fa6d51ab49961307fcf15e&amp;dn=Ben+10+Omniverse+A+Jolt+From+the+Past+EPISODE-3.mkv&amp;tr=udp%3A%2F%2Ftracker.openbittorrent.com%3A80&amp;tr=udp%3A%2F%2Fopen.demonii.com%3A1337&amp;tr=udp%3A%2F%2Ftracker.coppersurfer.tk%3A6969&amp;tr=udp%3A%2F%2Fexodus.desync.com%3A6969","seeders":1,"leechers":0,"uploader":"mettleedge","files":1,"time":1372205395,"description":"[color=red]INFO[/color][size=200][/size]\n\nGeneral \n\nFormat : Matroska \nFormat version : Version 2 \nFile size : 135 MiB \nDuration : 22mn 18s \nOverall bit rate : 844 Kbps \nWriting application : Lavf52.39.1 \nWriting library : Lavf52.39.1 \n\nVideo \nID : 1 \nFormat : MPEG-4 Visual \nFormat profile : Simple@L1 \nFormat settings, BVOP : No \nFormat settings, QPel : No \nFormat settings, GMC : No warppoints \nFormat settings, Matrix : Default (H.263) \nCodec ID : V_MPEG4/ISO/ASP \nCodec ID/Info : Advanced Simple Profile \nDuration : 22mn 18s \nBit rate : 700 Kbps \nWidth : 640 pixels \nHeight : 360 pixels \nDisplay aspect ratio : 16:9 \nFrame rate mode : Constant \nFrame rate : 30.000 fps \nColor space : YUV \nChroma subsampling : 4:2:0 \nBit depth : 8 bits \nScan type : Progressive \nCompression mode : Lossy \nBits/(Pixel*Frame) : 0.101 \nStream size : 112 MiB (83%) \nWriting library : Lavc52.37.0 \nDefault : Yes \nForced : No \n\nAudio \nID : 2 \nFormat : MPEG Audio \nFormat version : Version 1 \nFormat profile : Layer 2 \nCodec ID : A_MPEG/L2 \nCodec ID/Hint : MP2 \nDuration : 22mn 18s \nBit rate mode : Constant \nBit rate : 128 Kbps \nChannel(s) : 2 channels \nSampling rate : 44.1 KHz \nCompression mode : Lossy \nStream size : 20.4 MiB (15%) \nDefault : Yes \nForced : No \n\n[color=red]Screens[/color][size=200][/size]\n\n[img]http://i.imgbox.com/abgdvY65.png[/img]\n\n[img]http://i.imgbox.com/abw4EnCh.png[/img]\n\n[img]http://i.imgbox.com/abmJwF6L.png[/img]\n\n[img]http://i.imgbox.com/adpiejzD.png[/img]\n\n[img]http://i.imgbox.com/abjrdjq7.png[/img]\n\n[img]http://i.imgbox.com/abl8UItG.png[/img]\n\n[img]http://i.imgbox.com/adjNfOZM.png[/img]\n\n\n\n\n\n\n","torrent":{"xt":"urn:btih:55e9090bedde7fe577fa6d51ab49961307fcf15e","amp;dn":"Ben+10+Omniverse+A+Jolt+From+the+Past+EPISODE-3.mkv","amp;tr":["udp%3A%2F%2Ftracker.openbittorrent.com%3A80","udp%3A%2F%2Fopen.demonii.com%3A1337","udp%3A%2F%2Ftracker.coppersurfer.tk%3A6969","udp%3A%2F%2Fexodus.desync.com%3A6969"],"infoHash":"55e9090bedde7fe577fa6d51ab49961307fcf15e","infoHashBuffer":{"type":"Buffer","data":[85,233,9,11,237,222,127,229,119,250,109,81,171,73,150,19,7,252,241,94]},"announce":[],"urlList":[]}}